<?xml version="1.0" encoding="utf-8"?>
<!-- Generator: Adobe Illustrator 16.0.0, SVG Export Plug-In . SVG Version: 6.00 Build 0)  -->
<!DOCTYPE svg PUBLIC "-//W3C//DTD SVG 1.1//EN" "http://www.w3.org/Graphics/SVG/1.1/DTD/svg11.dtd">
<svg version="1.1" id="Calque_1" xmlns="http://www.w3.org/2000/svg" xmlns:xlink="http://www.w3.org/1999/xlink" x="0px" y="0px"
	 width="30px" height="30px" viewBox="9 9 30 30" enable-background="new 9 9 30 30" xml:space="preserve">
<path fill="#C79832" d="M19.91,30.282L24,26.083l4.125,4.199l1.617-1.666l-4.094-4.198l4.094-4.202l-1.617-1.669L24,22.749
	l-4.09-4.202l-1.652,1.669l4.125,4.202l-4.125,4.198L19.91,30.282z M16.473,36.5c-0.551,0-1.031-0.206-1.445-0.623
	c-0.411-0.419-0.617-0.907-0.617-1.46V14.625H13v-2.083h6.461V11.5h9.078v1.042H35v2.083h-1.407v19.792
	c0,0.553-0.21,1.041-0.623,1.46c-0.408,0.417-0.892,0.623-1.439,0.623H16.473z M31.53,14.625H16.473v19.792H31.53V14.625z
	 M16.473,14.625v19.792V14.625z"/>
</svg>
