<?xml version="1.0" encoding="utf-8"?>
<!-- Generator: Adobe Illustrator 16.0.0, SVG Export Plug-In . SVG Version: 6.00 Build 0)  -->
<!DOCTYPE svg PUBLIC "-//W3C//DTD SVG 1.1//EN" "http://www.w3.org/Graphics/SVG/1.1/DTD/svg11.dtd">
<svg version="1.1" id="Calque_1" xmlns="http://www.w3.org/2000/svg" xmlns:xlink="http://www.w3.org/1999/xlink" x="0px" y="0px"
	 width="30px" height="30px" viewBox="0 0 30 30" enable-background="new 0 0 30 30" xml:space="preserve">
<path fill="#C79832" d="M15.031,22.883c0.447,0,0.822-0.154,1.133-0.465c0.311-0.304,0.466-0.688,0.466-1.134
	c0-0.425-0.155-0.791-0.466-1.097c-0.313-0.31-0.686-0.465-1.133-0.465c-0.426,0-0.793,0.155-1.1,0.465
	c-0.308,0.305-0.463,0.672-0.463,1.097c0,0.446,0.155,0.83,0.463,1.134C14.238,22.729,14.605,22.883,15.031,22.883z M13.659,17.902
	h2.554c0-0.637,0.072-1.189,0.208-1.659c0.138-0.47,0.588-1.05,1.354-1.755c0.619-0.512,1.076-1.035,1.371-1.58
	c0.304-0.542,0.447-1.176,0.447-1.898c0-1.232-0.406-2.195-1.225-2.888c-0.818-0.69-1.883-1.035-3.176-1.035
	c-1.235,0-2.278,0.315-3.131,0.94c-0.849,0.629-1.443,1.452-1.786,2.475l2.297,0.861c0.148-0.512,0.436-0.963,0.859-1.357
	c0.428-0.395,0.981-0.591,1.66-0.591c0.617,0,1.118,0.17,1.497,0.512c0.388,0.341,0.576,0.767,0.576,1.277
	c0,0.424-0.138,0.841-0.41,1.243c-0.278,0.404-0.644,0.787-1.09,1.152c-0.785,0.678-1.315,1.284-1.593,1.818
	C13.799,15.947,13.659,16.773,13.659,17.902z M15,28.5c-1.85,0-3.602-0.35-5.249-1.055c-1.649-0.703-3.085-1.663-4.31-2.891
	c-1.224-1.222-2.187-2.654-2.888-4.307C1.852,18.604,1.5,16.85,1.5,15c0-1.873,0.356-3.627,1.069-5.265
	c0.713-1.641,1.682-3.077,2.903-4.309c1.224-1.235,2.657-2.198,4.294-2.888C11.404,1.845,13.15,1.5,15,1.5
	c1.873,0,3.635,0.345,5.279,1.038c1.652,0.69,3.08,1.649,4.295,2.873c1.213,1.221,2.168,2.657,2.871,4.306
	C28.15,11.366,28.5,13.127,28.5,15s-0.346,3.619-1.035,5.249c-0.695,1.63-1.654,3.056-2.891,4.274
	c-1.236,1.229-2.67,2.191-4.307,2.903C18.631,28.141,16.873,28.5,15,28.5z M15,25.658c2.956,0,5.477-1.035,7.546-3.112
	c2.077-2.069,3.112-4.59,3.112-7.546c0-2.957-1.035-5.473-3.112-7.546C20.477,5.377,17.956,4.339,15,4.339S9.527,5.377,7.454,7.454
	C5.377,9.527,4.339,12.044,4.339,15s1.038,5.477,3.115,7.546C9.527,24.623,12.044,25.658,15,25.658z"/>
</svg>
