<?xml version="1.0" encoding="utf-8"?>
<!-- Generator: Adobe Illustrator 16.0.0, SVG Export Plug-In . SVG Version: 6.00 Build 0)  -->
<!DOCTYPE svg PUBLIC "-//W3C//DTD SVG 1.1//EN" "http://www.w3.org/Graphics/SVG/1.1/DTD/svg11.dtd">
<svg version="1.1" id="Calque_1" xmlns="http://www.w3.org/2000/svg" xmlns:xlink="http://www.w3.org/1999/xlink" x="0px" y="0px"
	 width="30px" height="30px" viewBox="9 9 30 30" enable-background="new 9 9 30 30" xml:space="preserve">
<path fill="#C09832" d="M13.271,34.5c-0.485,0-0.902-0.172-1.249-0.505c-0.348-0.344-0.521-0.742-0.521-1.208
	c0-0.492,0.174-0.912,0.521-1.263c0.347-0.351,0.764-0.521,1.249-0.521c0.461,0,0.861,0.171,1.196,0.521
	c0.336,0.351,0.506,0.771,0.506,1.263c0,0.466-0.17,0.864-0.506,1.208C14.132,34.328,13.731,34.5,13.271,34.5z M18.442,33.799
	v-2.098H36.5v2.098H18.442z M13.271,25.753c-0.485,0-0.902-0.172-1.249-0.513C11.674,24.904,11.5,24.489,11.5,24
	s0.174-0.905,0.521-1.243c0.347-0.338,0.764-0.505,1.249-0.505c0.461,0,0.861,0.174,1.196,0.523
	c0.336,0.349,0.506,0.759,0.506,1.226c0,0.465-0.17,0.872-0.506,1.223C14.132,25.573,13.731,25.753,13.271,25.753z M18.442,25.052
	v-2.103H36.5v2.103H18.442z M13.234,17.001c-0.485,0-0.896-0.171-1.232-0.51c-0.335-0.338-0.502-0.751-0.502-1.243
	c0-0.489,0.167-0.903,0.502-1.241c0.336-0.338,0.747-0.507,1.232-0.507c0.487,0,0.897,0.169,1.232,0.507
	c0.336,0.338,0.506,0.752,0.506,1.241c0,0.492-0.17,0.905-0.506,1.243C14.132,16.83,13.722,17.001,13.234,17.001z M18.442,16.3
	v-2.099H36.5V16.3H18.442z"/>
</svg>
