<?xml version="1.0" encoding="utf-8"?>
<!-- Generator: Adobe Illustrator 16.0.0, SVG Export Plug-In . SVG Version: 6.00 Build 0)  -->
<!DOCTYPE svg PUBLIC "-//W3C//DTD SVG 1.1//EN" "http://www.w3.org/Graphics/SVG/1.1/DTD/svg11.dtd">
<svg version="1.1" id="Calque_1" xmlns="http://www.w3.org/2000/svg" xmlns:xlink="http://www.w3.org/1999/xlink" x="0px" y="0px"
	 width="30px" height="30px" viewBox="0 0 30 30" enable-background="new 0 0 30 30" xml:space="preserve">
<path fill="#C79832" d="M6.875,27.5c-0.522,0-0.963-0.176-1.328-0.521C5.182,26.635,5,26.208,5,25.714V12.798
	c0-0.498,0.182-0.918,0.547-1.265c0.365-0.35,0.806-0.521,1.328-0.521h2.187V8.154c0-1.568,0.579-2.902,1.733-4.004
	C11.953,3.051,13.354,2.5,15,2.5c1.648,0,3.047,0.552,4.205,1.65c1.157,1.103,1.732,2.437,1.732,4.004v2.857h2.188
	c0.519,0,0.966,0.172,1.328,0.521C24.815,11.88,25,12.301,25,12.798v12.916c0,0.494-0.185,0.921-0.547,1.265
	c-0.362,0.347-0.81,0.521-1.328,0.521H6.875z M6.875,25.714h16.25V12.798H6.875V25.714z M15,21.548c0.668,0,1.236-0.216,1.705-0.655
	c0.469-0.435,0.703-0.961,0.703-1.576c0-0.596-0.234-1.137-0.703-1.625c-0.469-0.485-1.037-0.729-1.705-0.729
	s-1.236,0.243-1.705,0.729c-0.469,0.488-0.703,1.029-0.703,1.625c0,0.615,0.234,1.143,0.703,1.576
	C13.764,21.332,14.332,21.548,15,21.548z M10.938,11.013h8.125V8.155c0-1.072-0.398-1.986-1.186-2.74
	C17.081,4.662,16.121,4.286,15,4.286c-1.126,0-2.084,0.376-2.877,1.129c-0.79,0.753-1.186,1.667-1.186,2.74V11.013z M6.875,25.714
	V12.798V25.714z"/>
</svg>
