<?xml version="1.0" encoding="utf-8"?>
<!-- Generator: Adobe Illustrator 16.0.0, SVG Export Plug-In . SVG Version: 6.00 Build 0)  -->
<!DOCTYPE svg PUBLIC "-//W3C//DTD SVG 1.1//EN" "http://www.w3.org/Graphics/SVG/1.1/DTD/svg11.dtd">
<svg version="1.1" id="Calque_1" xmlns="http://www.w3.org/2000/svg" xmlns:xlink="http://www.w3.org/1999/xlink" x="0px" y="0px"
	 width="30px" height="30px" viewBox="0 0 30 30" enable-background="new 0 0 30 30" xml:space="preserve">
<path fill="#C79832" d="M15.791,24.59c1.111,0,2.199-0.183,3.266-0.546c1.063-0.36,2.033-0.888,2.912-1.571
	c-0.919-0.647-1.9-1.174-2.943-1.574c-1.045-0.404-2.121-0.604-3.233-0.604s-2.19,0.198-3.235,0.604
	c-1.043,0.4-2.024,0.927-2.941,1.574c0.878,0.685,1.849,1.211,2.912,1.571C13.59,24.407,14.678,24.59,15.791,24.59z M18.309,14.618
	l-1.259-1.265c0.331-0.215,0.58-0.49,0.745-0.823c0.167-0.335,0.249-0.696,0.249-1.089c0-0.627-0.221-1.162-0.659-1.604
	c-0.438-0.441-0.971-0.662-1.594-0.662c-0.391,0-0.751,0.084-1.083,0.25c-0.332,0.167-0.604,0.417-0.819,0.75l-1.26-1.265
	c0.391-0.49,0.859-0.863,1.405-1.117c0.546-0.256,1.132-0.383,1.757-0.383c1.111,0,2.059,0.392,2.838,1.177
	c0.781,0.784,1.171,1.734,1.171,2.852c0,0.629-0.125,1.218-0.379,1.766C19.165,13.756,18.796,14.225,18.309,14.618z M25.217,21.561
	l-1.199-1.207c0.564-0.862,0.996-1.779,1.287-2.75c0.293-0.972,0.439-1.977,0.439-3.015c0-2.784-0.967-5.147-2.896-7.088
	c-1.934-1.941-4.285-2.912-7.057-2.912c-1.035,0-2.035,0.147-3.001,0.441c-0.967,0.294-1.87,0.735-2.708,1.323L8.854,5.119
	c1.014-0.746,2.112-1.315,3.291-1.707c1.182-0.392,2.396-0.588,3.646-0.588c1.619,0,3.143,0.309,4.566,0.927
	c1.426,0.617,2.662,1.456,3.717,2.514c1.055,1.06,1.889,2.305,2.505,3.736c0.614,1.433,0.921,2.961,0.921,4.589
	c0,1.255-0.195,2.477-0.586,3.662S25.957,20.538,25.217,21.561z M15.791,26.354c-1.62,0-3.143-0.31-4.566-0.927
	c-1.425-0.616-2.664-1.454-3.719-2.516c-1.054-1.058-1.888-2.302-2.503-3.735c-0.615-1.429-0.922-2.96-0.922-4.587
	c0-1.255,0.19-2.478,0.571-3.662c0.381-1.187,0.942-2.28,1.683-3.28L2.5,3.764L3.759,2.5l23.625,23.734l-1.26,1.266L7.564,8.881
	c-0.586,0.844-1.02,1.752-1.302,2.723c-0.284,0.97-0.425,1.965-0.425,2.984c0,1.217,0.209,2.387,0.629,3.514
	c0.421,1.129,1.009,2.164,1.771,3.104c1.133-0.787,2.334-1.427,3.602-1.929c1.27-0.498,2.586-0.748,3.953-0.748
	c0.896,0,1.771,0.107,2.619,0.322c0.85,0.217,1.683,0.52,2.504,0.912l3.131,3.146c-1.109,1.117-2.377,1.973-3.79,2.559
	C18.84,26.061,17.354,26.354,15.791,26.354z"/>
</svg>
