<?xml version="1.0" encoding="UTF-8" standalone="no"?>
<!DOCTYPE svg PUBLIC "-//W3C//DTD SVG 1.1//EN" "http://www.w3.org/Graphics/SVG/1.1/DTD/svg11.dtd">
<svg width="100%" height="100%" viewBox="0 0 250 250" version="1.1" xmlns="http://www.w3.org/2000/svg" xmlns:xlink="http://www.w3.org/1999/xlink" xml:space="preserve" xmlns:serif="http://www.serif.com/" style="fill-rule:evenodd;clip-rule:evenodd;stroke-linejoin:round;stroke-miterlimit:2;">
    <g transform="matrix(1.67318,0,0,1.67318,-60.0035,-23.688)">
        <path d="M111,84C118.551,74.216 133.191,71.058 145,71.001C148.742,70.983 155.344,69.835 157.821,73.434C160.014,76.621 159,82.339 159,86L159,116C159,122.998 159.094,130.003 158.996,137C158.958,139.717 159.094,143.232 156.566,144.972C153.381,147.165 147.662,145.833 144,146.09C136.679,146.603 128.337,148.593 122,152.353C118.584,154.38 114.278,160.582 110,160.079C105.595,159.56 101.883,153.728 98,151.673C91.103,148.022 82.713,146.618 75,146.09C66.404,145.5 57.616,146.001 49,146C45.899,146 41.029,146.822 38.603,144.397C35.87,141.663 37,135.503 37,132L37,70C37,66.467 36.137,61.515 38.603,58.61C42.356,54.188 50.02,51.315 55,48.424C67.327,41.27 79.711,34.229 92,27.011C96.879,24.145 105.146,17.203 111,17.643C116.826,18.081 124.046,24.101 129,27.011C141.621,34.423 154.38,41.599 167,49.011C171.583,51.702 181.195,55.099 183.397,60.21C185.152,64.284 184,70.638 184,75L184,133C184,136.097 184.853,140.972 182.973,143.663C180.573,147.098 177.609,143.812 177.148,140.981C175.958,133.675 177,125.4 177,118L177,80C177,75.463 178.34,68.262 175.972,64.21C174.324,61.388 170.725,59.835 168,58.281C161.998,54.857 155.958,51.489 150,47.989C141.019,42.714 132.055,37.429 123,32.281C119.524,30.305 115.096,26.62 111,26.314C106.081,25.947 99.126,31.601 95,34.012C83.359,40.811 71.72,47.618 60,54.281C55.507,56.835 47.726,59.591 45.028,64.21C41.968,69.447 44,80.074 44,86L44,139C66.087,139 86.902,137.427 107,148L107,107C107,101.85 108.325,94.532 105.397,90.015C98.061,78.699 80.925,78 69,78L69,113C68.999,115.526 69.852,123.589 65.09,122.248C60.909,121.072 62,114.204 62,111L62,86C62,82.488 61.127,77.504 62.603,74.228C64.545,69.923 71.186,70.983 75,71.001C88.481,71.065 100.965,74.841 111,84ZM114,148C127.087,143.237 137.744,139 152,139L152,78C140.567,78 122.778,78.234 115.603,89.04C112.648,93.492 114,100.898 114,106L114,148Z" style="fill:rgb(34,34,34);fill-rule:nonzero;"/>
    </g>
</svg>
