<?xml version="1.0" encoding="utf-8"?>
<!-- Generator: Adobe Illustrator 16.0.0, SVG Export Plug-In . SVG Version: 6.00 Build 0)  -->
<!DOCTYPE svg PUBLIC "-//W3C//DTD SVG 1.1//EN" "http://www.w3.org/Graphics/SVG/1.1/DTD/svg11.dtd">
<svg version="1.1" id="Calque_1" xmlns="http://www.w3.org/2000/svg" xmlns:xlink="http://www.w3.org/1999/xlink" x="0px" y="0px"
	 width="30px" height="30px" viewBox="9 9 30 30" enable-background="new 9 9 30 30" xml:space="preserve">
<path fill="#C79832" d="M14.899,34.5V23.678h-3.898L23.998,11.5l6.501,5.987v-3.959h2.598v6.461l3.904,3.688h-3.904V34.5h-7.471
	v-8.119h-3.25V34.5H14.899z M16.851,32.467h3.573v-8.113h7.148v8.113h3.579V20.938l-7.152-6.767l-7.147,6.767V32.467z
	 M20.423,24.354h7.148H20.423z M21.236,20.633h5.524c0-0.746-0.273-1.358-0.828-1.844c-0.552-0.485-1.196-0.726-1.934-0.726
	c-0.737,0-1.381,0.24-1.935,0.726C21.513,19.275,21.236,19.888,21.236,20.633z"/>
</svg>
